<?xml version="1.0" standalone="no"?>
<!DOCTYPE svg PUBLIC "-//W3C//DTD SVG 20010904//EN"
 "http://www.w3.org/TR/2001/REC-SVG-20010904/DTD/svg10.dtd">
<svg xmlns="http://www.w3.org/2000/svg"
     width="1123.000000pt" height="1123.000000pt" viewBox="0 0 1123.000000 1123.000000"
     preserveAspectRatio="xMidYMid meet">
<metadata>
Created by potrace 1.11, written by Peter Selinger 2001-2013
</metadata>
<g transform="translate(0.000000,1123.000000) scale(0.100000,-0.100000)"
fill="#000000" stroke="none">
<path d="M6009 8466 c-2 -2 -41 -6 -85 -10 -45 -3 -126 -15 -180 -26 -55 -11
-110 -23 -124 -25 -14 -3 -59 -14 -100 -26 -41 -11 -82 -22 -90 -23 -8 -2 -22
-6 -30 -9 -8 -3 -60 -22 -115 -43 -93 -34 -384 -168 -395 -183 -3 -3 -21 -15
-40 -25 -98 -53 -262 -170 -379 -271 -72 -61 -291 -283 -291 -294 0 -5 -4 -11
-9 -13 -33 -12 -291 -383 -291 -418 0 -4 -4 -10 -8 -12 -12 -5 -152 -296 -152
-316 0 -9 -39 -92 -43 -92 -2 0 -3 19 -3 43 -1 38 -8 153 -19 292 -2 28 -5 72
-6 98 -1 26 -6 50 -11 53 -9 6 -9 5 -13 -126 -3 -97 -13 -291 -21 -390 -2 -30
-6 -86 -9 -125 -6 -91 -10 -143 -30 -325 -8 -71 -18 -135 -21 -139 -4 -4 -23
43 -29 69 -8 35 -36 90 -44 86 -5 -3 -4 -27 1 -53 5 -27 11 -64 14 -83 3 -19
8 -48 10 -65 l5 -30 -32 30 c-89 82 -170 159 -258 244 -119 115 -193 181 -203
181 -11 0 -10 -18 2 -25 6 -3 35 -38 66 -76 31 -39 68 -82 82 -98 101 -104
283 -313 278 -319 -5 -4 -74 14 -126 33 -76 29 -130 43 -130 36 0 -4 35 -26
78 -49 166 -91 165 -90 145 -96 -20 -6 -112 -15 -213 -21 -36 -2 -114 -7 -175
-11 -60 -3 -130 -8 -155 -10 -25 -2 -103 -6 -175 -9 -347 -15 -399 -45 -88
-51 181 -3 452 -11 712 -19 68 -3 126 -7 128 -9 7 -7 -77 -60 -154 -96 -40
-19 -72 -38 -73 -42 0 -11 34 -10 46 0 5 5 38 19 74 31 36 12 72 25 80 28 8 4
17 7 20 7 3 1 11 5 18 10 7 4 15 6 18 3 4 -4 -47 -64 -121 -142 -16 -18 -58
-63 -91 -101 -34 -38 -73 -81 -85 -95 -87 -95 -209 -243 -209 -251 0 -13 31 6
76 49 209 194 279 261 359 341 54 54 96 88 100 82 4 -6 -1 -41 -10 -77 -24
-95 -25 -102 -14 -109 9 -5 47 68 54 108 3 11 7 23 10 26 5 6 6 2 11 -63 1
-22 5 -67 8 -100 16 -185 19 -264 32 -690 5 -198 10 -306 13 -327 0 -5 5 -8 9
-8 4 0 8 30 8 68 1 71 12 244 20 302 2 19 7 91 10 160 3 69 9 128 13 132 4 4
22 -34 40 -85 107 -293 308 -626 514 -851 167 -183 350 -341 527 -456 47 -30
87 -57 90 -60 12 -13 275 -147 335 -171 22 -9 63 -25 90 -37 42 -17 198 -69
230 -76 32 -8 102 -28 115 -33 8 -3 19 -5 23 -4 5 1 26 -3 48 -9 22 -6 56 -13
76 -16 35 -4 66 -9 109 -18 51 -10 208 -18 338 -17 77 1 150 1 161 1 34 -2 38
-2 110 4 68 6 101 10 158 21 15 3 39 7 55 10 15 3 43 8 62 11 19 3 42 7 50 10
8 3 29 8 45 11 17 2 48 9 70 15 22 7 42 12 45 13 3 0 32 9 65 20 33 10 65 19
70 21 64 15 379 157 390 175 4 5 15 9 26 9 10 0 19 5 19 10 0 6 6 10 13 10 6
0 32 14 57 30 25 16 42 30 38 30 -4 0 -61 -25 -125 -56 -271 -130 -495 -211
-663 -239 -19 -3 -44 -8 -55 -12 -11 -3 -31 -7 -45 -8 -14 -2 -43 -5 -65 -9
-102 -15 -173 -19 -350 -19 -224 -1 -366 8 -455 29 -14 3 -36 8 -50 10 -14 2
-36 6 -50 9 -14 3 -36 8 -50 11 -14 3 -78 21 -143 40 -351 105 -672 281 -972
534 -59 50 -232 226 -289 295 -31 39 -65 79 -74 90 -59 72 -195 294 -262 429
-69 142 -145 326 -155 378 -2 10 -6 22 -9 26 -3 5 -7 19 -10 33 -3 13 -15 60
-26 104 -11 44 -23 96 -26 115 -3 19 -7 43 -10 53 -3 10 -7 32 -9 50 l-4 32
17 -32 c8 -18 21 -33 27 -33 9 0 7 20 -7 68 -11 37 -24 87 -29 112 -5 25 -12
53 -15 63 -9 29 18 19 67 -26 26 -23 64 -56 85 -74 22 -18 66 -57 99 -87 33
-31 68 -58 78 -61 9 -4 17 -10 17 -15 0 -4 7 -11 16 -14 16 -6 -25 44 -90 110
-17 17 -49 53 -71 79 -68 80 -76 89 -107 123 -16 19 -28 36 -25 38 3 3 31 -5
63 -16 33 -12 68 -24 79 -28 18 -5 19 -4 4 11 -9 8 -38 30 -65 46 -34 22 -42
31 -28 32 61 4 100 7 199 14 116 8 187 11 480 20 239 7 296 12 309 25 7 7 4
10 -9 11 -85 5 -144 7 -310 13 -104 4 -242 9 -305 11 -90 3 -327 13 -407 18
-7 0 -13 1 -13 2 0 2 39 22 86 46 127 64 126 76 -2 34 -43 -14 -80 -23 -82
-20 -3 3 10 22 29 42 19 20 39 42 44 48 6 6 36 40 67 76 94 107 107 123 103
127 -8 8 -39 -17 -161 -133 -69 -66 -130 -121 -134 -123 -9 -3 8 48 39 121 11
26 21 51 22 55 1 4 4 13 7 20 12 32 -9 20 -33 -20 -15 -23 -36 -56 -46 -73
l-19 -30 4 30 c2 17 7 57 11 90 4 33 11 83 16 110 6 28 12 64 14 81 8 53 72
286 103 369 97 262 232 506 406 730 75 96 335 363 404 415 19 14 53 40 75 59
128 104 320 216 537 313 106 47 259 104 304 114 10 2 33 8 50 13 17 6 42 12
56 15 14 2 54 11 90 19 36 8 90 18 120 22 30 4 58 9 62 11 11 7 237 18 368 18
116 -1 259 -9 305 -18 11 -2 56 -9 100 -16 44 -7 87 -13 95 -15 40 -8 261 -66
282 -74 38 -15 62 -24 76 -27 7 -1 33 -12 58 -23 24 -12 47 -21 50 -21 15 0
314 -154 314 -161 0 -5 8 -9 18 -9 9 0 26 -7 36 -15 11 -8 25 -15 30 -15 15 0
-44 48 -69 56 -11 4 -38 19 -60 34 -119 80 -511 243 -657 274 -13 3 -50 12
-83 20 -33 8 -76 17 -95 20 -19 3 -73 13 -120 22 -59 11 -165 17 -341 20 -140
2 -257 3 -260 0z"/>
<path d="M5072 6806 c-7 -11 -10 -864 -4 -903 7 -37 42 -28 162 42 61 36 114
65 117 65 4 0 14 7 24 16 17 15 27 12 146 -58 185 -107 180 -105 199 -86 15
14 16 68 17 457 0 343 -3 444 -13 456 -16 20 -25 19 -47 -4 -17 -18 -18 -48
-18 -415 1 -218 -1 -396 -4 -396 -3 0 -61 32 -129 72 l-124 71 -52 -26 c-78
-40 -149 -81 -164 -94 -40 -37 -46 6 -42 280 0 9 0 24 0 32 0 8 0 22 0 30 0 8
0 21 1 28 1 6 0 105 -1 219 -1 145 -5 209 -13 216 -16 12 -46 11 -55 -2z"/>
<path d="M6211 6807 c-14 -14 -15 -231 -1 -258 13 -24 35 -24 52 0 17 24 16
237 0 253 -16 16 -38 18 -51 5z"/>
<path d="M5892 6793 c-5 -10 -8 -160 -8 -333 l1 -315 32 -65 c69 -145 190
-221 342 -215 145 5 276 106 326 250 14 42 16 92 15 315 0 146 0 282 0 302 1
42 -14 78 -33 78 -39 -1 -40 -8 -43 -322 -2 -323 -5 -349 -56 -421 -119 -174
-376 -155 -470 35 -34 67 -38 116 -40 423 0 138 -5 258 -10 268 -5 9 -17 17
-28 17 -11 0 -23 -8 -28 -17z"/>
<path d="M5264 5688 c-192 -40 -261 -309 -113 -443 65 -58 97 -67 264 -70 83
-2 161 -8 175 -13 59 -24 101 -89 105 -162 1 -25 -22 -87 -42 -110 -44 -52
-71 -57 -306 -56 -120 0 -227 -2 -238 -6 -13 -5 -19 -17 -19 -38 0 -16 3 -31
8 -32 4 0 115 -2 247 -3 271 -2 298 3 362 74 102 112 88 279 -30 374 -55 45
-74 49 -250 53 -164 5 -184 11 -234 68 -59 67 -54 179 12 238 54 49 67 51 312
53 235 2 263 6 263 40 0 35 -29 39 -254 40 -123 0 -240 -3 -262 -7z"/>
<path d="M5874 5682 c-8 -7 -14 -28 -15 -45 -4 -143 1 -868 6 -876 10 -17 40
-13 56 7 11 13 14 57 13 209 0 168 2 193 15 197 9 2 64 4 123 4 96 -1 112 1
162 26 197 96 196 371 -2 467 -42 21 -62 23 -196 24 -113 1 -152 -3 -162 -13z
m321 -85 c45 -22 82 -64 96 -104 20 -62 -4 -152 -51 -190 -41 -33 -80 -43
-191 -45 l-114 -3 -1 175 c-1 96 1 178 3 182 8 14 227 2 258 -15z"/>
<path d="M7198 5680 c-83 -26 -145 -64 -209 -130 -138 -141 -172 -349 -87
-530 54 -113 172 -215 288 -249 39 -11 133 -24 165 -22 115 6 222 57 313 147
34 35 62 68 62 73 0 6 -10 11 -22 12 -13 1 -32 2 -43 3 -11 0 -39 -17 -62 -38
-102 -94 -219 -129 -349 -105 -111 21 -224 106 -275 207 -95 188 -13 433 175
525 83 41 143 49 256 34 63 -8 152 -59 210 -120 29 -31 41 -37 77 -37 24 0 43
4 43 10 0 5 -19 33 -43 61 -51 64 -143 128 -217 153 -77 26 -209 29 -282 6z"/>
<path d="M7890 5692 c-14 -2 -30 -8 -36 -13 -16 -13 -16 -889 0 -910 9 -13 53
-15 289 -15 l278 0 5 23 c11 41 -9 51 -94 49 -42 -1 -85 2 -94 6 -10 5 -18 5
-18 1 0 -4 -26 -7 -57 -5 -70 3 -89 3 -128 -1 -16 -1 -38 1 -47 6 -10 4 -18 4
-18 -1 0 -10 -43 -10 -50 0 -3 4 -5 82 -5 175 l1 168 204 3 c219 3 239 8 225
51 -7 24 7 23 -245 25 l-185 1 0 180 1 180 237 1 c202 0 240 3 253 16 13 12
14 20 5 37 -7 11 -19 21 -29 22 -76 3 -472 3 -492 1z"/>
<path d="M6607 5673 c-15 -17 -127 -221 -127 -232 0 -3 -9 -17 -20 -31 -11
-14 -20 -32 -20 -42 0 -9 -3 -18 -7 -20 -5 -1 -26 -37 -47 -78 -22 -41 -51
-97 -66 -125 -15 -27 -48 -88 -72 -135 -25 -47 -59 -111 -77 -143 -33 -61 -38
-86 -20 -104 23 -23 53 0 86 67 12 25 58 113 102 195 l80 150 135 3 c105 2
136 0 138 -10 0 -7 2 -17 3 -23 3 -16 17 -88 22 -110 6 -29 13 -67 17 -90 2
-11 7 -31 10 -45 3 -14 8 -36 10 -50 9 -58 19 -80 37 -85 11 -4 26 -1 34 5 16
13 13 51 -12 160 -2 8 -5 24 -7 35 -12 67 -17 93 -23 120 -3 17 -7 39 -9 50
-1 11 -10 56 -20 100 -9 44 -18 89 -20 100 -1 11 -3 20 -4 20 -1 0 -3 9 -4 20
-2 16 -15 88 -21 115 0 3 -4 21 -8 40 -4 19 -9 46 -12 60 -3 14 -8 38 -11 55
-8 46 -39 59 -67 28z m19 -161 c1 -9 14 -90 19 -117 2 -11 4 -20 5 -20 1 0 3
-11 5 -25 2 -14 7 -41 10 -60 l7 -36 -96 1 c-52 0 -98 3 -101 7 -5 5 74 160
132 261 5 8 17 1 19 -11z"/>
<path d="M3602 4270 c0 -14 2 -19 5 -12 2 6 2 18 0 25 -3 6 -5 1 -5 -13z"/>
</g>
</svg>
